<svg id="Touch-Gesture--Streamline-Atlas.svg" xmlns="http://www.w3.org/2000/svg" viewBox="-0.5 -0.5 16 16" height="16" width="16"><desc>Touch Gesture Streamline Icon: https://streamlinehq.com</desc><defs></defs><path d="m6.324999999999999 13.94375 -3.125 -3.125a1.25 1.25 0 0 1 -0.3625 -0.88125 1.25 1.25 0 0 1 0.3625 -0.875 1.25 1.25 0 0 1 0.88125 -0.36874999999999997 1.25 1.25 0 0 1 0.875 0.36874999999999997l0.8125 0.80625V4.050000000000001a1.2125 1.2125 0 0 1 1.06875 -1.25 1.18125 1.18125 0 0 1 1.25 1.1625V7.5l3.125 0.44375a1.1687500000000002 1.1687500000000002 0 0 1 1.00625 1.15625 10.5625 10.5625 0 0 1 -1.11875 4.7375l-0.056249999999999994 0.10625000000000001" fill="none" stroke="#2c2c2c" stroke-miterlimit="10" stroke-width="0.7"></path><path d="M8.0875 6.66875a2.84375 2.84375 0 0 0 0.8999999999999999 -0.625 2.9312500000000004 2.9312500000000004 0 1 0 -4.1499999999999995 0 2.86875 2.86875 0 0 0 0.90625 0.625" fill="none" stroke="#2c2c2c" stroke-miterlimit="10" stroke-width="0.7"></path></svg>